<svg width="1600" height="1300" viewBox="0 0 1600 1300" fill="none" xmlns="http://www.w3.org/2000/svg">
<path d="M314.916 1299.85C371.35 1109.26 484.629 949.525 584.538 785.316L582.719 778.332C444.156 795.667 303.729 737.43 196.362 643.367C99.3631 558.399 16.5072 430.469 7.18476 290.581C25.6022 302.288 106.093 323.493 120.918 311.584C122.965 309.926 122.965 307.112 122.373 304.951C121.873 303.092 98.6809 286.259 94.0424 281.536C23.5558 209.582 -14.0522 106.122 4.86551 0C270.896 97.1784 574.897 176.871 769.577 415.094C896.817 570.81 910.368 724.718 751.705 859.883C661.892 936.41 546.475 990.727 471.123 1087.1C467.394 1091.88 452.069 1109.96 455.889 1115.69C534.106 1066.55 613.051 1017.76 689.177 964.75C802.319 885.911 926.785 795.114 918.645 626.685C914.143 533.376 866.803 475.189 829.013 398.813C715.416 169.384 922.828 -70.2961 1136.43 59.3421C1168.67 78.8884 1222.87 135.819 1251.75 142.15C1273.81 146.974 1309.73 147.325 1333.29 148.079C1422.01 150.993 1511.28 145.717 1600 147.978V150.591C1546.48 161.244 1493.09 174.057 1440.2 188.176C1334.56 216.315 1242.61 228.023 1194.82 350.475C1162.66 432.781 1187.54 489.158 1191.18 572.267C1205.09 887.017 1032.2 1068.26 759.8 1105.09C710.368 1111.77 656.616 1108.31 608.549 1119.66C530.741 1138.1 413.324 1227.24 344.702 1277.14C335.743 1283.67 324.511 1291.46 317.235 1300H314.87L314.916 1299.85ZM1110.64 185.312C1110.64 160.641 1092.54 140.693 1070.21 140.693C1047.89 140.693 1029.79 160.691 1029.79 185.312C1029.79 209.934 1047.89 229.932 1070.21 229.932C1092.54 229.932 1110.64 209.934 1110.64 185.312ZM661.437 550.008H568.622V444.94C637.653 414.139 615.143 305.052 539.472 316.759C519.554 319.825 504.274 340.074 494.27 357.611L399.363 358.967L318.326 269.728C316.507 265.608 323.283 254.151 324.102 247.519C333.424 175.464 256.935 129.688 212.642 184.106C180.309 223.852 195.452 287.314 241.519 302.791C260.3 309.072 271.078 304.851 288.949 299.474L361.528 382.182C360.846 390.673 330.286 417.757 323.101 425.445C317.007 431.977 301.5 455.04 296.043 457.804C284.72 463.482 269.986 455.492 250.75 467.451C187.449 506.745 240.154 618.997 306.685 582.066C318.554 591.713 383.72 658.844 384.72 668.34C386.403 684.771 379.49 693.112 388.358 714.065C419.554 787.477 522.055 734.014 490.996 658.14L549.068 594.577L658.708 593.974C677.262 660.703 765.848 651.859 770.759 582.518C775.852 510.111 689.995 485.239 661.437 549.958V550.008Z" fill="#541176"/>
<path d="M495.543 399.869C499.136 421.927 516.143 436.449 533.469 445.393L532.878 553.374C525.511 561.665 519.281 571.313 512.278 579.905C506.866 586.538 471.123 627.338 467.53 629.147C459.754 633.117 456.343 626.283 449.841 625.379C432.742 622.967 421.328 627.188 405.775 633.067L334.743 552.52C341.246 526.04 340.245 503.479 324.829 481.219L398.772 400.07L495.543 399.818V399.869Z" fill="#541176"/>
</svg>
