<?xml version="1.0" encoding="UTF-8"?>
<svg id="Capa_1" xmlns="http://www.w3.org/2000/svg" xmlns:xlink="http://www.w3.org/1999/xlink" version="1.1" viewBox="0 0 1080 1080">
  <!-- Generator: Adobe Illustrator 29.4.0, SVG Export Plug-In . SVG Version: 2.1.0 Build 152)  -->
  <defs>
    <style>
      .st0 {
        fill: #27095e;
      }

      .st1 {
        fill: #680ca6;
      }

      .st2 {
        fill: #6c10ad;
      }

      .st3 {
        fill: url(#Degradado_sin_nombre_7);
      }

      .st4 {
        fill: #fefefe;
      }

      .st5 {
        fill: #a727f3;
      }

      .st6 {
        fill: url(#Degradado_sin_nombre_71);
      }

      .st7 {
        fill: url(#Degradado_sin_nombre_18);
      }

      .st8 {
        fill: url(#Degradado_sin_nombre_12);
      }
    </style>
    <linearGradient id="Degradado_sin_nombre_18" data-name="Degradado sin nombre 18" x1="375.67" y1="152.87" x2="503.62" y2="844.32" gradientUnits="userSpaceOnUse">
      <stop offset="0" stop-color="#710fae"/>
      <stop offset=".49" stop-color="#620ca2"/>
      <stop offset="1" stop-color="#590899"/>
    </linearGradient>
    <linearGradient id="Degradado_sin_nombre_12" data-name="Degradado sin nombre 12" x1="382.6" y1="874.28" x2="792.3" y2="260.38" gradientUnits="userSpaceOnUse">
      <stop offset="0" stop-color="#992ade"/>
      <stop offset=".49" stop-color="#9622de"/>
      <stop offset="1" stop-color="#7d1fc4"/>
    </linearGradient>
    <linearGradient id="Degradado_sin_nombre_7" data-name="Degradado sin nombre 7" x1="414.77" y1="885.29" x2="837.39" y2="333.42" gradientUnits="userSpaceOnUse">
      <stop offset="0" stop-color="#640aa5"/>
      <stop offset=".49" stop-color="#5c099e"/>
      <stop offset="1" stop-color="#3c076e"/>
    </linearGradient>
    <linearGradient id="Degradado_sin_nombre_71" data-name="Degradado sin nombre 7" x1="428.21" y1="861.34" x2="561.81" y2="861.34" xlink:href="#Degradado_sin_nombre_7"/>
  </defs>
  <path class="st7" d="M254.09,129.37s30.77,61.54,118.19,120.28c0,0,134.27,100.7,162.24,134.27,0,0,86.02,65.99,62.24,156.08,0,0,6.29,34.84-92.31,114.56,0,0-95.81,66.44-91.61,231.48,0,0-46.16-80.42-10.49-182.52,0,0,8.39-65.74,88.11-132.17,0,0-72.73,6.29-170.63-88.81,0,0-58.74-60.14-68.53-129.37l55.95,26.57s-67.83-41.61-65.04-132.87c0,0,51.05,46.51,67.14,52.1,0,0-89.51-71.33-55.25-169.59Z"/>
  <path class="st8" d="M822.64,298.26c-39.69-2.77-55.25-14.69-55.25-14.69-3.18-3.09-7.75-4.56-11.15-7.79-15.2-14.48-73.47-8.99-73.47-8.99-45.94,2.93-70.92,23.62-84.52,44.89-15.58,24.38-16.19,49.52-16.19,49.52l-6.29,46.85c39.16,46.16,39.86,95.81,39.86,95.81,1.4,76.93-71.51,115.88-71.51,115.88-112.77,77.42-122.62,175.49-122.62,175.49-29.44,76.57,6.71,134.52,6.71,134.52-25.87-102.1,25.88-166.44,25.88-166.44,34.27-65.04,109.79-104.2,109.79-104.2,53.15-29.37,84.62-69.93,84.62-69.93,44.76-50.35,46.16-148.26,46.16-148.26,6.99-76.93,69.93-103.98,69.93-103.98,60.84-30.55,155.25-28.19,155.25-28.19l-97.21-10.49Z"/>
  <path class="st3" d="M764.6,336.94s-62.94,27.05-69.93,103.98c0,0-1.4,97.91-46.16,148.26,0,0-31.47,40.56-84.62,69.93,0,0-75.53,39.16-109.79,104.2,0,0-45.38,56.42-29.9,147.43h0s.01.06.02.09c.13.8.28,1.6.43,2.38.03.17.06.33.09.5.96,5.24,2.11,10.58,3.49,16.03,0,0-.03-.97-.01-2.74.13-15.26,3.62-91.27,58.76-142.02,0,0,20.45-26.7,74.84-58.84,11.48-6.79,24.47-13.81,39.11-20.88,0,0,74.17-28.67,114.03-104.2,0,0,38.46-55.95,33.57-127.98,0,0-21.74-95.99,41.26-130.07,0,0,44.76-23.78,130.07-34.27,0,0-94.41-2.36-155.25,28.19Z"/>
  <path class="st6" d="M486.97,784.99c-55.14,50.76-58.63,126.76-58.76,142.02,16.86,50.88,66.2,69.53,66.2,69.53-46.25-56.65-27.75-117.93-27.75-117.93,18.04,60.12,70.76,74.92,70.76,74.92-37.46-52.26-29.13-119.77-29.13-119.77,3.52-50.17,34.63-88.63,53.52-107.62-54.39,32.14-74.84,58.84-74.84,58.84Z"/>
  <path class="st2" d="M805.69,200.49l-119.3-36.08c-8.61-1.97-13.06,1.23-13.06,1.23l-149.28,71.58c-6.15,5.41.49,7.38.49,7.38l28.78,9.35.49,42.06c-7.87.49-8.85,9.1-8.85,9.1-1.48,10.08,5.41,13.04,5.41,13.04l-9.1,34.93c-2.46,7.38,3.05,8.12,3.05,8.12,4.13.45,5.26-2.35,5.26-2.35l6.16-38.27-5.62,37.92c2.26,4.23,7.2,3.66,7.2,3.66,3.1.22,6.08-3.16,6.08-3.16l-3.2-38.62,3.2,38.62c2.14,3.98,6.07,2.01,6.07,2.01,4.29-1.97,2.79-6.93,2.79-6.93l-7.87-35.67c3.69-1.72,5.17-10.33,5.17-10.33-.25-9.84-7.87-12.54-7.87-12.54l-.49-38.37,32.55,10.55,3.08-4.72c26.45-34.52,69.84-37.79,69.84-37.79,56.33-6.15,82.93,14.5,82.93,14.5l56.08-32.22c6.89-4.67,0-6.96,0-6.96Z"/>
  <path class="st5" d="M593.75,267.68v10.08s23.03-36.59,80.55-42.22c0,0,45.91-3.69,77.76,16.54l-2.45-12.41s-26.73-20.14-76.7-15.65c0,0-54.96,3.29-79.15,43.66Z"/>
  <path class="st1" d="M593.75,277.77v29.23s-.15,4.87,4.92,4.07c0,0,22.94-39.22,80.73-44.02,0,0,59.42-5.57,78.09,9.39l-5.42-24.34s-26.34-20.73-79.15-16.75c0,0-50.15,2.82-79.15,42.43Z"/>
  <path class="st4" d="M542.6,481.88c8.89-22.66,42.33-10.27,33.99,13.54-5.62,16.05-31.79,14.79-34.05-2.49l-39.18.15-30.18,30.8c.07,8.36,2.5,14.26-3.5,21.42-7.47,8.92-22.01,8.31-28.92-.98-4.62-6.21-2.93-12.27-2.47-19.45l-40.91-37.95c-40.77,15.68-43.15-49.82-.72-37.16l28.08-33.33-37.88-48.01c-19.78,8.46-39.8-9.52-32.15-30.11,9.19-24.74,50.24-17.29,44.87,13.93-.52,3.04-4.01,7.47-3.36,9.76l37.54,48.44,50.26.53c5.82-13.33,22.43-17.07,31.61-4.53,5.14,7.03,4.01,17.76-2,23.97-2.41,2.49-7.26,3.53-7.96,7.02-.85,4.22.93,8.08,1.02,11.93.25,10.82-.27,21.7-.04,32.51h35.94ZM389.1,347.04c0-6.9-5.59-12.49-12.48-12.49s-12.48,5.59-12.48,12.49,5.59,12.49,12.48,12.49,12.48-5.59,12.48-12.49ZM483.56,422.06l-49.08.08-30.25,34.73c2.31,8.1,3.4,13.61,1.06,21.99l40.17,37.86c7.69-3.48,12.24-2.66,20.22-1.33l29.79-30.21.25-49.59c-6.09-3-10.71-6.4-12.15-13.53ZM396.22,468.88c0-5.53-4.48-10.01-10.01-10.01s-10.01,4.48-10.01,10.01,4.48,10.01,10.01,10.01,10.01-4.48,10.01-10.01Z"/>
  <circle class="st0" cx="708.49" cy="308.7" r="16.62"/>
</svg>